<?xml version="1.0" standalone="no"?>
<!DOCTYPE svg PUBLIC "-//W3C//DTD SVG 20010904//EN"
 "http://www.w3.org/TR/2001/REC-SVG-20010904/DTD/svg10.dtd">
<svg version="1.0" xmlns="http://www.w3.org/2000/svg"
 width="752.000000pt" height="752.000000pt" viewBox="0 0 752.000000 752.000000"
 preserveAspectRatio="xMidYMid meet">
<metadata>
Created by potrace 1.16, written by Peter Selinger 2001-2019
</metadata>
<g transform="translate(0.000000,752.000000) scale(0.100000,-0.100000)"
fill="red" stroke="none">
<path d="M1808 5923 c-48 -56 -137 -340 -157 -503 -79 -627 317 -1126 984
-1240 65 -11 136 -26 159 -34 72 -24 290 11 472 75 345 121 595 370 697 694
40 128 50 218 44 387 -6 172 -33 301 -102 480 -47 121 -59 134 -134 131 -336
-14 -707 -177 -892 -392 l-43 -50 -71 76 c-203 222 -497 352 -875 388 -56 5
-68 3 -82 -12z m1945 -180 c3 -10 17 -49 32 -86 63 -169 89 -345 74 -509 -31
-330 -227 -601 -543 -749 -86 -40 -220 -82 -299 -94 l-48 -7 53 87 53 88 165
43 c125 32 168 47 182 64 23 29 23 51 -3 84 -25 32 -55 33 -159 6 -41 -10 -75
-18 -77 -17 -1 2 15 32 36 67 l38 64 164 42 c123 32 168 48 181 65 20 24 23
51 7 80 -20 37 -52 40 -151 14 -50 -14 -93 -24 -94 -22 -1 1 27 51 64 112 74
123 83 164 43 196 -26 22 -68 24 -92 6 -8 -7 -42 -57 -74 -112 -82 -141 -78
-139 -99 -48 -10 43 -25 90 -32 104 -24 47 -99 46 -125 -3 -10 -18 -5 -49 31
-193 l44 -170 -40 -67 -40 -67 -23 94 c-25 103 -43 128 -93 128 -34 0 -68 -32
-68 -65 0 -11 18 -89 41 -174 l40 -155 -53 -90 -53 -89 -22 65 c-44 131 -58
222 -57 380 1 171 18 255 79 384 64 134 185 276 306 358 115 79 283 147 448
183 114 24 157 25 164 3z m-1476 -465 c11 -13 49 -72 83 -131 35 -60 66 -105
70 -100 4 4 18 50 30 101 16 66 28 97 43 107 32 22 64 18 83 -10 16 -25 15
-33 -26 -194 l-44 -169 51 -89 c45 -78 52 -100 68 -198 9 -60 27 -143 40 -182
13 -40 21 -73 20 -73 -2 0 -27 38 -55 84 l-52 85 -157 37 c-86 20 -166 43
-178 50 -32 20 -31 67 2 92 25 20 25 20 125 -5 55 -14 103 -23 106 -21 3 3
-14 38 -38 78 l-43 73 -165 43 c-175 46 -207 64 -194 108 15 51 47 56 166 26
44 -12 84 -20 89 -18 5 2 -22 57 -61 123 -38 66 -70 130 -70 142 0 30 34 63
63 63 13 0 33 -10 44 -22z"/>
<path d="M5033 5315 c-172 -47 -308 -190 -344 -363 -10 -49 -9 -147 4 -248 1
-15 -89 -118 -331 -377 l-332 -357 -1205 0 -1205 0 -16 -25 c-14 -21 -15 -40
-10 -103 36 -413 207 -839 465 -1162 72 -90 241 -260 331 -333 113 -92 271
-192 407 -258 l121 -60 4 -167 c3 -155 5 -170 27 -205 12 -21 40 -46 62 -57
37 -19 62 -20 754 -20 792 0 759 -3 811 66 l29 37 3 176 3 176 117 57 c126 61
288 163 392 246 88 71 250 231 323 320 269 329 446 763 482 1179 6 68 5 87 -9
108 l-16 25 -465 2 -464 3 100 178 100 177 37 0 c164 0 349 127 427 292 70
148 68 295 -5 444 -64 130 -164 213 -305 250 -65 18 -225 17 -292 -1z m747
-1509 c0 -14 -9 -72 -20 -130 -90 -466 -341 -890 -705 -1194 -126 -106 -247
-184 -410 -263 l-140 -69 -745 0 -745 0 -140 69 c-229 112 -410 244 -580 422
-279 292 -478 691 -535 1069 -6 41 -13 85 -16 98 l-4 22 2020 0 2020 0 0 -24z"/>
</g>
</svg>
